<svg xmlns="http://www.w3.org/2000/svg" viewBox="0 0 1200 1200" fill="none">
  <rect width="1200" height="1200" fill="#0d0b09"/>
  <defs>
    <linearGradient id="frameGlow" x1="174" y1="174" x2="1026" y2="1026" gradientUnits="userSpaceOnUse">
      <stop offset="0" stop-color="#f4c56a"/>
      <stop offset="1" stop-color="#de6d2f"/>
    </linearGradient>
    <radialGradient id="ember" cx="0" cy="0" r="1" gradientUnits="userSpaceOnUse" gradientTransform="translate(600 600) rotate(90) scale(428)">
      <stop offset="0" stop-color="#f7c978" stop-opacity="0.22"/>
      <stop offset="1" stop-color="#f7c978" stop-opacity="0"/>
    </radialGradient>
  </defs>
  <circle cx="600" cy="600" r="428" fill="url(#ember)"/>

  <path d="M210 238V990H962" stroke="url(#frameGlow)" stroke-width="18" stroke-linecap="round" stroke-linejoin="round"/>
  <path d="M962 210H700" stroke="url(#frameGlow)" stroke-width="18" stroke-linecap="round"/>
  <path d="M990 238V500" stroke="url(#frameGlow)" stroke-width="18" stroke-linecap="round"/>


  <path d="M600 600C600 600 643 595 660 566C677 537 667 497 636 478C591 451 534 472 514 522C492 579 516 651 579 681C652 716 741 681 781 605C823 521 797 410 701 355C586 289 444 330 381 451" stroke="#f4c56a" stroke-width="14" stroke-linecap="round" stroke-linejoin="round"/>


  <g stroke-linejoin="round">
    <path d="M699.86 594.77L896.59 584.46" stroke="#f4c56a" stroke-width="12" stroke-linecap="round" opacity="0.95"/>
    <path d="M635.84 693.36L706.44 877.27" stroke="#f4c56a" stroke-width="12" stroke-linecap="round" opacity="0.95"/>
    <path d="M522.29 662.93L369.19 786.91" stroke="#f4c56a" stroke-width="12" stroke-linecap="round" opacity="0.95"/>
    <path d="M516.13 545.54L350.91 438.24" stroke="#f4c56a" stroke-width="12" stroke-linecap="round" opacity="0.95"/>
    <path d="M625.88 503.41L676.87 313.12" stroke="#f4c56a" stroke-width="12" stroke-linecap="round" opacity="0.95"/>
    <path d="M336 336H864V864H336Z" stroke="#de6d2f" stroke-width="6" opacity="0.72"/>
  </g>
  <g>
    <circle cx="896.59" cy="584.46" r="16" fill="#f4c56a"/>
    <circle cx="706.44" cy="877.27" r="16" fill="#f4c56a"/>
    <circle cx="369.19" cy="786.91" r="16" fill="#f4c56a"/>
    <circle cx="350.91" cy="438.24" r="16" fill="#f4c56a"/>
    <circle cx="676.87" cy="313.12" r="16" fill="#f4c56a"/>
  </g>

</svg>
